HIERARCHY
ROOT Hips
{
	OFFSET -0.001795 -0.223333 0.028219
	CHANNELS 6 Xposition Yposition Zposition Zrotation Yrotation Xrotation 
	JOINT LeftUpLeg
	{
		OFFSET 0.069520 -0.091406 -0.006815
		CHANNELS 3 Zrotation Yrotation Xrotation
		JOINT LeftLeg
		{
			OFFSET 0.034277 -0.375199 -0.004496
			CHANNELS 3 Zrotation Yrotation Xrotation
			JOINT LeftFoot
			{
				OFFSET -0.013596 -0.397961 -0.043693
				CHANNELS 3 Zrotation Yrotation Xrotation
				JOINT LeftToe
				{
					OFFSET 0.026358 -0.055791 0.119288
					CHANNELS 3 Zrotation Yrotation Xrotation
					End Site
					{
						OFFSET 0.000000 0.000000 0.000000
					}
				}
			}
		}
	}
	JOINT RightUpLeg
	{
		OFFSET -0.067670 -0.090522 -0.004320
		CHANNELS 3 Zrotation Yrotation Xrotation
		JOINT RightLeg
		{
			OFFSET -0.038290 -0.382569 -0.008850
			CHANNELS 3 Zrotation Yrotation Xrotation
			JOINT RightFoot
			{
				OFFSET 0.015774 -0.398415 -0.042312
				CHANNELS 3 Zrotation Yrotation Xrotation
				JOINT RightToe
				{
					OFFSET -0.025372 -0.048144 0.123348
					CHANNELS 3 Zrotation Yrotation Xrotation
					End Site
					{
						OFFSET 0.000000 0.000000 0.000000
					}
				}
			}
		}
	}
	JOINT Spine
	{
		OFFSET -0.002533 0.108963 -0.026696
		CHANNELS 3 Zrotation Yrotation Xrotation
		JOINT Spine1
		{
			OFFSET 0.005487 0.135180 0.001092
			CHANNELS 3 Zrotation Yrotation Xrotation
			JOINT Spine2
			{
				OFFSET 0.001457 0.052922 0.025425
				CHANNELS 3 Zrotation Yrotation Xrotation
				JOINT Neck
				{
					OFFSET -0.002778 0.213870 -0.042857
					CHANNELS 3 Zrotation Yrotation Xrotation
					JOINT Head
					{
						OFFSET 0.005152 0.064970 0.051349
						CHANNELS 3 Zrotation Yrotation Xrotation
						End Site
						{
							OFFSET 0.000000 0.000000 0.000000
						}
					}
				}
				JOINT LeftShoulder
				{
					OFFSET 0.078845 0.121749 -0.034090
					CHANNELS 3 Zrotation Yrotation Xrotation
					JOINT LeftArm
					{
						OFFSET 0.090977 0.030469 -0.008868
						CHANNELS 3 Zrotation Yrotation Xrotation
						JOINT LeftForeArm
						{
							OFFSET 0.259612 -0.012772 -0.027456
							CHANNELS 3 Zrotation Yrotation Xrotation
							JOINT LeftHand
							{
								OFFSET 0.249234 0.008986 -0.001171
								CHANNELS 3 Zrotation Yrotation Xrotation
								End Site
								{
									OFFSET 0.000000 0.000000 0.000000
								}
							}
						}
					}
				}
				JOINT RightShoulder
				{
					OFFSET -0.081759 0.118833 -0.038615
					CHANNELS 3 Zrotation Yrotation Xrotation
					JOINT RightArm
					{
						OFFSET -0.096012 0.032551 -0.009143
						CHANNELS 3 Zrotation Yrotation Xrotation
						JOINT RightForeArm
						{
							OFFSET -0.253742 -0.013329 -0.021401
							CHANNELS 3 Zrotation Yrotation Xrotation
							JOINT RightHand
							{
								OFFSET -0.255298 0.007772 -0.005559
								CHANNELS 3 Zrotation Yrotation Xrotation
								End Site
								{
									OFFSET 0.000000 0.000000 0.000000
								}
							}
						}
					}
				}
			}
		}
	}
}
MOTION
Frames: 9
Frame Time: 0.050000
-0.033508 0.940610 -0.081857 -4.646882 17.154434 19.478064 11.562338 -1.501424 -22.949947 3.803395 -0.562735 3.375588 3.923287 13.202622 13.267209 0.000000 0.000000 0.000000 -3.963467 0.750204 -31.554965 -1.100977 0.381295 10.542800 5.019895 4.795171 18.115779 0.000000 0.000000 0.000000 2.284723 -2.641657 23.491029 -0.354425 -0.194095 2.741662 6.675615 2.079640 7.301086 -7.847217 5.825139 8.365502 0.000000 0.000000 0.000000 3.032739 -11.325148 3.996560 -51.575021 -29.218789 5.292034 -12.655057 -52.675996 7.309140 0.000000 0.000000 0.000000 -9.709867 18.464988 5.450854 53.671292 42.012795 16.502847 -18.028426 47.254649 -4.364771 0.000000 0.000000 0.000000 
-0.035669 0.941106 -0.081263 -4.826902 17.642887 19.412175 12.075178 -1.489886 -22.967946 3.606951 -0.523749 3.186734 3.679940 12.928371 13.460114 0.000000 0.000000 0.000000 -3.682420 0.783378 -31.416163 -0.761661 0.298905 10.234514 4.487210 3.801191 18.587250 0.000000 0.000000 0.000000 1.998759 -2.565016 23.351535 -0.352489 -0.116536 1.768460 7.003548 1.997314 7.914478 -8.891360 6.799078 6.697704 0.000000 0.000000 0.000000 2.327913 -11.179082 3.901751 -51.536328 -27.950276 4.673114 -15.320760 -52.654264 8.586826 0.000000 0.000000 0.000000 -8.368388 18.424907 5.662299 55.505288 41.024468 16.637636 -16.391381 50.418434 -3.877966 0.000000 0.000000 0.000000 
-0.037444 0.941996 -0.079643 -5.530775 18.140214 19.306334 12.760179 -1.468497 -23.016231 4.075357 -0.560151 3.019111 3.454201 12.710922 13.733904 0.000000 0.000000 0.000000 -2.783871 0.974345 -31.092211 -1.002873 0.340952 9.537888 4.706362 4.034944 19.226957 0.000000 0.000000 0.000000 1.623971 -2.394520 22.745761 -0.291241 -0.069596 0.821864 7.194449 2.058820 8.699222 -9.578297 7.443890 4.207480 0.000000 0.000000 0.000000 1.663669 -10.598057 3.650349 -51.736915 -26.354545 3.897388 -16.535626 -52.210199 9.000647 0.000000 0.000000 0.000000 -6.012278 18.033953 5.957504 57.428548 38.470429 15.774550 -11.799093 53.448840 -1.767834 0.000000 0.000000 0.000000 
-0.038857 0.942786 -0.077595 -5.680777 19.119426 19.021925 13.104246 -1.482169 -22.476409 4.110036 -0.487075 2.137699 2.901237 12.027111 13.908604 0.000000 0.000000 0.000000 -2.265844 1.030096 -30.220486 -1.160547 0.352836 8.590519 3.982522 2.836100 19.816772 0.000000 0.000000 0.000000 1.386244 -2.309428 22.304430 -0.261147 -0.019852 -0.010883 6.777423 1.810448 9.033323 -10.080057 7.874489 2.220606 0.000000 0.000000 0.000000 1.381008 -10.834297 3.692298 -51.494381 -25.333835 3.372517 -15.482514 -51.542007 8.243903 0.000000 0.000000 0.000000 -3.969805 17.702778 6.240634 59.148874 35.742509 14.700133 -7.613548 56.519869 0.472930 0.000000 0.000000 0.000000 
-0.039617 0.943278 -0.075628 -5.822784 20.255081 18.756378 13.324972 -1.522814 -22.091641 4.296614 -0.440091 1.400609 2.290275 11.252699 13.964586 0.000000 0.000000 0.000000 -2.016357 1.006248 -29.461730 -1.114945 0.325392 8.126116 3.445350 2.183560 19.769979 0.000000 0.000000 0.000000 1.148996 -2.207241 21.696369 -0.625218 0.171295 -0.501668 6.614238 1.807447 8.988348 -10.433227 8.143509 0.174060 0.000000 0.000000 0.000000 1.391976 -10.737876 3.636306 -51.405508 -25.210627 3.246591 -14.080362 -50.762515 7.272226 0.000000 0.000000 0.000000 -2.916007 17.161688 6.264483 60.258230 33.302879 13.685505 -3.081759 57.998476 3.069495 0.000000 0.000000 0.000000 
-0.039999 0.943857 -0.074094 -5.832609 20.866145 18.424033 13.161134 -1.529318 -21.299195 4.712068 -0.394223 0.403843 1.852979 10.721207 14.137178 0.000000 0.000000 0.000000 -1.879222 1.010935 -28.434134 -1.365265 0.360986 7.427476 3.420860 2.395671 19.364635 0.000000 0.000000 0.000000 0.402747 -1.931504 21.008780 -0.773927 0.291176 -1.220465 6.337437 2.358524 9.277756 -10.747076 8.401624 -2.402448 0.000000 0.000000 0.000000 0.626907 -10.625178 3.475964 -50.720723 -25.335685 3.161757 -12.908258 -50.000882 6.387168 0.000000 0.000000 0.000000 -2.042894 16.663257 6.284035 60.904923 31.472379 12.892441 0.291916 59.267392 5.264817 0.000000 0.000000 0.000000 
-0.039920 0.944315 -0.073015 -5.739685 22.039010 18.092525 13.273231 -1.581048 -21.116586 4.503238 -0.350677 0.149105 1.236898 9.911109 14.067036 0.000000 0.000000 0.000000 -1.722971 0.970744 -27.598119 -1.800222 0.430119 7.168132 3.041826 2.080566 19.061673 0.000000 0.000000 0.000000 0.133423 -1.809060 20.301799 -1.114967 0.445407 -1.428179 5.988053 2.823267 8.837161 -10.877327 8.474833 -3.468474 0.000000 0.000000 0.000000 -0.722838 -10.968639 3.371834 -49.291323 -25.609704 3.222090 -11.537233 -49.536424 5.431685 0.000000 0.000000 0.000000 -1.651226 16.619570 6.395065 60.697321 30.125328 12.217761 3.503353 59.823853 7.283509 0.000000 0.000000 0.000000 
-0.039617 0.944625 -0.072088 -5.576163 22.714034 17.549343 13.152100 -1.584368 -20.456536 4.398208 -0.311384 -0.212814 0.820071 9.325252 13.972736 0.000000 0.000000 0.000000 -1.702851 0.950637 -26.508510 -1.986869 0.457684 7.106626 2.546078 1.682311 17.944654 0.000000 0.000000 0.000000 -0.732700 -1.559332 19.850251 -0.964833 0.427539 -1.949950 5.681773 3.515733 8.778931 -10.493414 8.266161 -5.743905 0.000000 0.000000 0.000000 -1.133386 -10.807776 3.178779 -48.883261 -26.796436 3.605746 -9.987945 -49.286849 4.460688 0.000000 0.000000 0.000000 -0.699015 16.546648 6.633582 59.463583 29.866780 11.773022 5.576988 59.592486 8.552943 0.000000 0.000000 0.000000 
-0.039247 0.945031 -0.071324 -5.413302 23.728659 16.940593 13.080150 -1.599350 -19.757500 4.236096 -0.255702 -0.734896 0.225711 8.513301 13.898357 0.000000 0.000000 0.000000 -1.600921 0.933891 -25.162687 -2.364077 0.513812 6.671368 2.023098 1.172086 17.205356 0.000000 0.000000 0.000000 -1.224689 -1.361656 18.924397 -1.081059 0.496836 -2.185974 5.548021 3.297429 8.995412 -10.489317 8.314684 -5.815188 0.000000 0.000000 0.000000 -1.785988 -10.972573 3.107393 -48.224528 -28.195198 4.080030 -7.770503 -48.586302 3.344443 0.000000 0.000000 0.000000 -1.015672 16.253601 6.432318 59.471436 29.328143 11.545260 7.171182 60.088924 9.646685 0.000000 0.000000 0.000000 
